# xmcd
#
# Track frame offsets:
#	182
#	14000
#	27702
#	41665
#	55917
#	71595
#	82397
#	98207
#	112797
#	128255
#
# Disc length: 1892 seconds
#
# Revision: 5
# Processed by: cddbd v1.5.2PL0 Copyright (c) Steve Scherf et al.
# Submitted via: EZCDAudioConverter 6.0.7.1
#
DISCID=8507620a
DTITLE=Dean Dillon - Hot, Country And Single
DYEAR=1993
DGENRE=Country
TTITLE0=Hot, Country And Single
TTITLE1=Easy Come, Easy Go
TTITLE2=Old News
TTITLE3=Some Days It Takes All Night
TTITLE4=Heart On The Line
TTITLE5=I Just Came In Here To Have A Good Time
TTITLE6=What'll I Do With It Now
TTITLE7=When Hell Freezes Over
TTITLE8=Everybody Knows
TTITLE9=Holed Up In Some Honky Tonk
EXTD=
EXTT0=
EXTT1=
EXTT2=
EXTT3=
EXTT4=
EXTT5=
EXTT6=
EXTT7=
EXTT8=
EXTT9=
PLAYORDER=
